<svg width="512" height="512" viewBox="0 0 512 512" fill="none" xmlns="http://www.w3.org/2000/svg">
  <defs>
    <linearGradient id="bg" x1="72" y1="64" x2="440" y2="448" gradientUnits="userSpaceOnUse">
      <stop stop-color="#0E1C30"/>
      <stop offset="0.55" stop-color="#0A2B3B"/>
      <stop offset="1" stop-color="#0A131E"/>
    </linearGradient>
    <linearGradient id="accent" x1="122" y1="118" x2="391" y2="396" gradientUnits="userSpaceOnUse">
      <stop stop-color="#54E3FF"/>
      <stop offset="1" stop-color="#0ACF83"/>
    </linearGradient>
  </defs>

  <rect x="34" y="34" width="444" height="444" rx="104" fill="url(#bg)"/>
  <rect x="34" y="34" width="444" height="444" rx="104" stroke="#FFFFFF" stroke-opacity="0.08"/>
  <path d="M134 166C134 148.327 148.327 134 166 134H346C363.673 134 378 148.327 378 166V206H134V166Z" fill="#0B1624"/>
  <circle cx="174" cy="170" r="10" fill="#54E3FF" fill-opacity="0.9"/>
  <circle cx="206" cy="170" r="10" fill="#19D197" fill-opacity="0.9"/>
  <circle cx="238" cy="170" r="10" fill="#F7B955" fill-opacity="0.9"/>
  <rect x="134" y="206" width="244" height="172" rx="0" fill="#09121C"/>
  <path d="M190 264L242 334H209L166 264H190Z" fill="url(#accent)"/>
  <path d="M269 264L303 334L347 264H380L317 378H288L236 264H269Z" fill="#EAF8FF"/>
  <path d="M158 388H354" stroke="#54E3FF" stroke-width="12" stroke-linecap="round" stroke-opacity="0.55"/>
</svg>
